<?xml version="1.0" standalone="no"?><!DOCTYPE svg PUBLIC "-//W3C//DTD SVG 1.1//EN" "http://www.w3.org/Graphics/SVG/1.1/DTD/svg11.dtd"><svg t="1555512425519" class="icon" style="" viewBox="0 0 1024 1024" version="1.1" xmlns="http://www.w3.org/2000/svg" p-id="1102" xmlns:xlink="http://www.w3.org/1999/xlink" width="200" height="200"><defs><style type="text/css"></style></defs><path d="M802.260416 472.465606C742.322688 549.638803 649.6448 600.397357 544.52192 600.397357 438.07008 600.397357 344.341376 548.505568 284.465472 469.66343 203.892544 577.135162 152.763136 717.820941 152.763136 820.924576 152.763136 933.114682 325.838784 1024 539.391488 1024 752.923584 1024 925.96832 933.114682 925.96832 820.924576 925.96832 709.290784 878.20768 575.13655 802.260416 472.465606L802.260416 472.465606ZM817.332416 272.903206C817.332416 423.612947 695.272896 545.723994 544.52192 545.723994 393.81216 545.723994 271.70112 423.602643 271.70112 272.903206 271.70112 122.172864 393.81216 0 544.52192 0 695.2832 0 817.332416 122.172864 817.332416 272.903206L817.332416 272.903206Z" p-id="1103"></path></svg>